<svg xmlns="http://www.w3.org/2000/svg" xmlns:xlink="http://www.w3.org/1999/xlink" width="500" zoomAndPan="magnify" viewBox="0 0 375 374.999991" height="500" preserveAspectRatio="xMidYMid meet" version="1.0"><defs><g/><clipPath id="bb2e8c919e"><path d="M 139.707031 115.363281 L 234.957031 115.363281 L 234.957031 158.863281 L 139.707031 158.863281 Z M 139.707031 115.363281 " clip-rule="nonzero"/></clipPath><clipPath id="33c699917f"><path d="M 140 116 L 234.957031 116 L 234.957031 158.863281 L 140 158.863281 Z M 140 116 " clip-rule="nonzero"/></clipPath><clipPath id="5361de3a21"><path d="M 139.707031 223.488281 L 234.957031 223.488281 L 234.957031 259.355469 L 139.707031 259.355469 Z M 139.707031 223.488281 " clip-rule="nonzero"/></clipPath><clipPath id="c95ecc467e"><path d="M 140 223.488281 L 234.957031 223.488281 L 234.957031 259 L 140 259 Z M 140 223.488281 " clip-rule="nonzero"/></clipPath></defs><g clip-path="url(#bb2e8c919e)"><path fill="#fae8e0" d="M 139.707031 239.109375 L 139.707031 115.367188 L 234.957031 115.367188 L 234.957031 239.109375 Z M 229.003906 218.960938 L 229.003906 121.328125 L 145.660156 121.328125 L 145.660156 218.960938 Z M 229.003906 218.960938 " fill-opacity="1" fill-rule="nonzero"/></g><g clip-path="url(#33c699917f)"><path fill="#f1f1f1" d="M 140.558594 116.21875 L 140.558594 238.257812 L 234.109375 238.257812 L 234.109375 116.21875 Z M 229.855469 219.8125 L 144.8125 219.8125 L 144.8125 120.476562 L 229.855469 120.476562 Z M 229.855469 219.8125 " fill-opacity="1" fill-rule="nonzero"/></g><g clip-path="url(#5361de3a21)"><path fill="#fae8e0" d="M 139.707031 259.351562 L 139.707031 135.609375 L 234.957031 135.609375 L 234.957031 259.351562 Z M 229.003906 239.199219 L 229.003906 141.570312 L 145.660156 141.570312 L 145.660156 239.199219 Z M 229.003906 239.199219 " fill-opacity="1" fill-rule="nonzero"/></g><g clip-path="url(#c95ecc467e)"><path fill="#f1f1f1" d="M 140.558594 136.460938 L 140.558594 258.5 L 234.109375 258.5 L 234.109375 136.460938 Z M 229.855469 240.050781 L 144.8125 240.050781 L 144.8125 140.71875 L 229.855469 140.71875 Z M 229.855469 240.050781 " fill-opacity="1" fill-rule="nonzero"/></g><g fill="#f1f1f1" fill-opacity="1"><g transform="translate(44.240604, 195.88282)"><g><path d="M -0.046875 -31.140625 L 12.375 0 L 13.363281 0 C 14.714844 0 15.300781 0.855469 14.804688 2.113281 C 12.914062 6.976562 9.585938 14.128906 3.195312 14.128906 L 0.316406 14.128906 L 0.316406 17.550781 L 2.339844 17.550781 C 10.800781 17.550781 14.941406 4.320312 16.425781 0 L 28.84375 -31.140625 L 24.839844 -31.140625 L 16.648438 -3.238281 C 16.46875 -2.609375 16.199219 -2.25 15.929688 -2.25 C 15.703125 -2.25 15.390625 -2.566406 15.164062 -3.195312 L 4.003906 -31.140625 Z M -0.046875 -31.140625 "/></g></g></g><g fill="#f1f1f1" fill-opacity="1"><g transform="translate(73.130571, 195.88282)"><g><path d="M 17.503906 0.898438 C 26.640625 0.898438 32.761719 -5.671875 32.761719 -15.570312 C 32.761719 -25.46875 26.640625 -32.039062 17.503906 -32.039062 C 8.371094 -32.039062 2.25 -25.46875 2.25 -15.570312 C 2.25 -5.671875 8.371094 0.898438 17.503906 0.898438 Z M 5.941406 -15.570312 C 5.941406 -24.929688 10.574219 -31.140625 17.503906 -31.140625 C 24.433594 -31.140625 29.070312 -24.929688 29.070312 -15.570312 C 29.070312 -6.210938 24.433594 0 17.503906 0 C 10.574219 0 5.941406 -6.210938 5.941406 -15.570312 Z M 5.941406 -15.570312 "/></g></g></g><g fill="#f1f1f1" fill-opacity="1"><g transform="translate(108.14054, 195.88282)"><g><path d="M 2.023438 -28.484375 C 2.023438 -27.585938 2.65625 -27.136719 3.105469 -27.136719 C 4.726562 -27.136719 3.871094 -30.238281 7.648438 -30.238281 L 10.710938 -30.238281 C 11.070312 -30.238281 11.746094 -30.328125 11.746094 -29.835938 C 11.746094 -27.855469 2.339844 -22.050781 2.339844 -12.238281 C 2.339844 -5.398438 6.886719 0.898438 14.671875 0.898438 C 19.800781 0.898438 22.949219 -1.261719 25.605469 -3.960938 C 26.011719 -4.363281 26.324219 -4.589844 26.59375 -4.589844 C 26.953125 -4.589844 27.136719 -4.183594 27.136719 -3.375 L 27.136719 0 L 30.734375 0 L 30.734375 -31.140625 L 27.136719 -31.140625 L 27.136719 -11.296875 C 27.136719 -6.480469 22.816406 -0.449219 16.605469 -0.449219 C 10.078125 -0.449219 5.714844 -6.796875 5.714844 -13.949219 C 5.714844 -23.625 13.273438 -28.171875 13.273438 -30.328125 C 13.273438 -30.734375 13.09375 -31.140625 12.421875 -31.140625 L 7.378906 -31.140625 C 5.175781 -31.140625 2.023438 -30.734375 2.023438 -28.484375 Z M 2.023438 -28.484375 "/></g></g></g><g fill="#f1f1f1" fill-opacity="1"><g transform="translate(142.205502, 195.88282)"><g><path d="M 3.148438 -31.140625 L 3.148438 0 L 6.75 0 L 6.75 -19.035156 C 6.75 -24.703125 12.148438 -29.65625 17.550781 -29.65625 C 20.96875 -29.65625 21.601562 -27.585938 24.03125 -27.585938 C 25.425781 -27.585938 25.695312 -28.710938 25.695312 -29.25 C 25.695312 -30.871094 23.085938 -32.039062 19.84375 -32.039062 C 14.21875 -32.039062 10.078125 -28.261719 7.875 -25.199219 C 7.515625 -24.703125 7.246094 -24.433594 7.066406 -24.433594 C 6.839844 -24.433594 6.75 -24.796875 6.75 -25.515625 L 6.75 -31.140625 Z M 3.148438 -31.140625 "/></g></g></g><g fill="#f1f1f1" fill-opacity="1"><g transform="translate(167.900473, 195.88282)"><g><path d="M 7.378906 0 L 4.679688 -40.09375 C 4.636719 -40.859375 4.859375 -41.308594 5.175781 -41.308594 C 5.398438 -41.308594 5.714844 -41.085938 5.984375 -40.589844 C 6.660156 -39.464844 22.09375 -10.484375 22.09375 -10.484375 C 22.09375 -10.484375 35.460938 -39.148438 36.226562 -40.589844 C 36.496094 -41.085938 36.765625 -41.308594 36.988281 -41.308594 C 37.304688 -41.308594 37.53125 -40.859375 37.53125 -40.09375 L 37.53125 0 L 41.308594 0 L 41.308594 -45 L 37.171875 -45 L 24.164062 -17.234375 C 23.851562 -16.605469 23.535156 -16.289062 23.175781 -16.289062 C 22.816406 -16.289062 22.453125 -16.605469 22.140625 -17.191406 L 7.289062 -45 L 3.601562 -45 L 3.601562 0 Z M 7.378906 0 "/></g></g></g><g fill="#f1f1f1" fill-opacity="1"><g transform="translate(212.810428, 195.88282)"><g><path d="M 17.730469 0.898438 C 23.804688 0.898438 27.359375 -1.84375 29.429688 -6.164062 L 28.484375 -6.703125 C 26.953125 -3.328125 23.761719 -0.449219 18.765625 -0.449219 C 12.328125 -0.449219 8.011719 -4.726562 6.570312 -11.878906 C 6.300781 -13.140625 7.109375 -13.996094 8.503906 -13.949219 C 9 -13.949219 9.496094 -13.949219 10.078125 -13.949219 C 19.621094 -13.949219 28.621094 -18.808594 28.621094 -25.425781 C 28.621094 -30.015625 23.445312 -32.039062 18.808594 -32.039062 C 9.71875 -32.039062 2.25 -24.613281 2.25 -15.660156 C 2.25 -5.488281 8.730469 0.898438 17.730469 0.898438 Z M 6.121094 -17.011719 C 6.300781 -24.164062 10.84375 -31.140625 18.628906 -31.140625 C 21.960938 -31.140625 24.976562 -28.980469 24.976562 -25.109375 C 24.976562 -18.808594 15.929688 -14.671875 10.035156 -14.671875 C 9.136719 -14.671875 8.371094 -14.761719 7.738281 -14.851562 C 6.796875 -14.984375 6.074219 -15.976562 6.121094 -17.011719 Z M 6.121094 -17.011719 "/></g></g></g><g fill="#f1f1f1" fill-opacity="1"><g transform="translate(243.815389, 195.88282)"><g><path d="M 3.148438 -31.140625 L 3.148438 0 L 6.75 0 L 6.75 -20.65625 C 6.75 -26.324219 12.238281 -31.140625 17.730469 -31.140625 C 22.230469 -31.140625 24.164062 -28.035156 24.164062 -23.894531 L 24.164062 0 L 27.765625 0 L 27.765625 -20.835938 C 27.765625 -26.101562 32.671875 -31.140625 38.699219 -31.140625 C 43.199219 -31.140625 45.136719 -28.035156 45.136719 -23.894531 L 45.136719 0 L 48.734375 0 L 48.734375 -23.21875 C 48.734375 -27.71875 45.988281 -32.039062 38.65625 -32.039062 C 34.558594 -32.039062 30.78125 -29.699219 28.574219 -26.460938 C 28.214844 -25.921875 27.898438 -25.648438 27.675781 -25.648438 C 27.359375 -25.648438 27.136719 -25.964844 26.820312 -26.59375 C 25.335938 -29.835938 22.09375 -32.039062 17.683594 -32.039062 C 13.769531 -32.039062 10.078125 -29.878906 7.875 -26.820312 C 7.515625 -26.324219 7.246094 -26.054688 7.066406 -26.054688 C 6.839844 -26.054688 6.75 -26.414062 6.75 -27.136719 L 6.75 -31.140625 Z M 3.148438 -31.140625 "/></g></g></g><g fill="#f1f1f1" fill-opacity="1"><g transform="translate(295.745333, 195.88282)"><g><path d="M 17.503906 0.898438 C 26.640625 0.898438 32.761719 -5.671875 32.761719 -15.570312 C 32.761719 -25.46875 26.640625 -32.039062 17.503906 -32.039062 C 8.371094 -32.039062 2.25 -25.46875 2.25 -15.570312 C 2.25 -5.671875 8.371094 0.898438 17.503906 0.898438 Z M 5.941406 -15.570312 C 5.941406 -24.929688 10.574219 -31.140625 17.503906 -31.140625 C 24.433594 -31.140625 29.070312 -24.929688 29.070312 -15.570312 C 29.070312 -6.210938 24.433594 0 17.503906 0 C 10.574219 0 5.941406 -6.210938 5.941406 -15.570312 Z M 5.941406 -15.570312 "/></g></g></g><g fill="#f1f1f1" fill-opacity="1"><g transform="translate(157.377855, 216.137974)"><g><path d="M 6.523438 0 L 7.574219 0 L 4.320312 -9 L 3.253906 -9 L 0 0 L 1.050781 0 L 1.785156 -2.101562 L 5.789062 -2.101562 Z M 2.101562 -3.015625 L 3.796875 -7.859375 L 5.476562 -3.015625 Z M 2.101562 -3.015625 "/></g></g></g><g fill="#f1f1f1" fill-opacity="1"><g transform="translate(169.776939, 216.137974)"><g><path d="M 2.054688 -0.960938 L 2.054688 -9 L 1.09375 -9 L 1.09375 0 L 5.398438 0 L 5.398438 -0.960938 Z M 2.054688 -0.960938 "/></g></g></g><g fill="#f1f1f1" fill-opacity="1"><g transform="translate(180.136021, 216.137974)"><g><path d="M 5.535156 -4.558594 C 6.328125 -4.921875 6.855469 -5.640625 6.855469 -6.601562 C 6.855469 -8.011719 5.746094 -9 4.363281 -9 L 1.09375 -9 L 1.09375 0 L 4.679688 0 C 6.046875 0 7.140625 -0.976562 7.140625 -2.371094 C 7.140625 -3.464844 6.480469 -4.246094 5.535156 -4.558594 Z M 5.894531 -6.523438 C 5.894531 -5.640625 5.160156 -4.964844 4.261719 -4.964844 L 2.039062 -4.964844 L 2.039062 -8.039062 L 4.261719 -8.039062 C 5.160156 -8.039062 5.894531 -7.410156 5.894531 -6.523438 Z M 4.558594 -0.960938 L 2.039062 -0.960938 L 2.039062 -4.035156 L 4.558594 -4.035156 C 5.445312 -4.035156 6.179688 -3.359375 6.179688 -2.476562 C 6.179688 -1.589844 5.445312 -0.960938 4.558594 -0.960938 Z M 4.558594 -0.960938 "/></g></g></g><g fill="#f1f1f1" fill-opacity="1"><g transform="translate(192.805105, 216.137974)"><g><path d="M 4.425781 0.121094 C 6.390625 0.121094 7.816406 -1.183594 7.816406 -2.953125 L 7.816406 -9 L 6.855469 -9 L 6.855469 -3.105469 C 6.855469 -1.800781 5.820312 -0.839844 4.425781 -0.839844 C 3.03125 -0.839844 2.011719 -1.800781 2.011719 -3.105469 L 2.011719 -9 L 1.050781 -9 L 1.050781 -2.953125 C 1.050781 -1.183594 2.476562 0.121094 4.425781 0.121094 Z M 4.425781 0.121094 "/></g></g></g><g fill="#f1f1f1" fill-opacity="1"><g transform="translate(206.494189, 216.137974)"><g><path d="M 9.03125 -9 L 5.566406 -1.15625 L 2.113281 -9 L 1.09375 -9 L 1.09375 0 L 2.054688 0 L 2.054688 -7.109375 L 5.160156 0 L 5.953125 0 L 9.089844 -7.078125 L 9.089844 0 L 10.035156 0 L 10.035156 -9 Z M 9.03125 -9 "/></g></g></g></svg>