<svg width="64" height="64" viewBox="0 0 64 64" fill="none" xmlns="http://www.w3.org/2000/svg">
<circle opacity="0.6" cx="32" cy="32" r="32" fill="#5E6882"/>
<path d="M35.7588 25.6251L34.2963 23.067L31.7234 29.5002C31.6865 29.591 31.6232 29.6687 31.5418 29.7233C31.4603 29.7779 31.3645 29.8069 31.2664 29.8067H31.2462C31.1449 29.8027 31.0472 29.7675 30.9666 29.7058C30.886 29.6442 30.8265 29.5591 30.7961 29.4623L29.151 24.1188L28.2424 25.6325C28.1989 25.705 28.1374 25.765 28.0639 25.8068C27.9904 25.8486 27.9073 25.8708 27.8228 25.8711H24.3792V24.8872H27.5444L28.877 22.6661C28.926 22.5846 28.9975 22.5191 29.0829 22.4774C29.1683 22.4357 29.2639 22.4196 29.3582 22.4311C29.4526 22.4426 29.5416 22.4812 29.6145 22.5422C29.6873 22.6032 29.741 22.684 29.7689 22.7748L31.3269 27.8389L33.7611 21.753C33.7952 21.6667 33.8531 21.5918 33.928 21.537C34.0029 21.4822 34.0918 21.4497 34.1844 21.4432C34.277 21.4368 34.3696 21.4567 34.4514 21.5007C34.5331 21.5446 34.6008 21.6108 34.6466 21.6915L36.4712 24.8872H40.8987C41.6814 21.632 39.9541 19.8974 39.9541 19.8974C39.5145 19.3091 38.9439 18.8314 38.2875 18.502C37.6311 18.1727 36.907 18.0008 36.1726 18C33.6504 18 31.7584 19.8974 31.7584 19.8974C31.7584 19.8974 29.8663 18 27.3441 18C26.6094 18.0005 25.8849 18.1722 25.2281 18.5016C24.5714 18.8309 24.0004 19.3089 23.5606 19.8974C23.5606 19.8974 17.8855 25.5902 31.7584 35.71C37.2366 31.7139 39.6654 28.4086 40.6001 25.8711H36.1858C36.0993 25.8713 36.0143 25.8486 35.9393 25.8054C35.8644 25.7623 35.8021 25.7001 35.7588 25.6251V25.6251Z" fill="white"/>
<path d="M45.0409 23.9033C44.7367 23.9046 44.4404 23.9998 44.1924 24.1759C43.9444 24.352 43.7569 24.6005 43.6555 24.8872H40.9006C40.8196 25.2207 40.7192 25.5492 40.6001 25.8711H43.6555C43.7462 26.1255 43.905 26.3501 44.1146 26.5204C44.3243 26.6907 44.5767 26.8 44.8443 26.8366C45.1119 26.8731 45.3844 26.8353 45.632 26.7274C45.8796 26.6196 46.0928 26.4457 46.2482 26.2249C46.4037 26.004 46.4955 25.7447 46.5136 25.4752C46.5316 25.2057 46.4753 24.9365 46.3506 24.6969C46.226 24.4573 46.0379 24.2565 45.8069 24.1166C45.5759 23.9766 45.3109 23.9029 45.0409 23.9033V23.9033ZM45.0409 25.8711C44.9436 25.8711 44.8484 25.8423 44.7675 25.7882C44.6866 25.7341 44.6236 25.6573 44.5864 25.5674C44.5491 25.4775 44.5394 25.3786 44.5584 25.2832C44.5773 25.1878 44.6242 25.1001 44.693 25.0313C44.7618 24.9625 44.8494 24.9157 44.9449 24.8967C45.0403 24.8777 45.1392 24.8874 45.2291 24.9247C45.319 24.9619 45.3958 25.025 45.4499 25.1059C45.5039 25.1868 45.5328 25.2819 45.5328 25.3792C45.5328 25.5096 45.481 25.6348 45.3887 25.727C45.2965 25.8193 45.1713 25.8711 45.0409 25.8711Z" fill="white"/>
<path d="M20.9356 24.8872H17V25.8711H20.9356V24.8872Z" fill="white"/>
<path d="M45.8614 35.7946C45.6138 35.4153 45.2348 35.1409 44.7972 35.0242C44.3595 34.9075 43.8942 34.9567 43.4907 35.1624L40.8007 36.5399C40.9843 36.977 41.0042 37.4657 40.8568 37.9163C40.7095 38.367 40.4047 38.7494 39.9984 38.9937L34.5235 42.2405C33.2396 43.0055 31.7104 43.2465 30.2535 42.9135L25.3065 41.7294L25.5352 40.7726L30.4724 41.9532C31.6833 42.2287 32.9537 42.0284 34.0213 41.3939L39.4956 38.1471C39.7192 38.0135 39.8811 37.7972 39.9463 37.5451C40.0115 37.293 39.9747 37.0253 39.8439 36.8001C39.5578 36.3048 39.0923 35.9385 38.5436 35.7768C37.9949 35.6152 37.4051 35.6707 36.8962 35.9318L32.9257 37.9695C32.6479 38.1122 32.3397 38.1857 32.0274 38.1837C31.7151 38.1816 31.4079 38.1041 31.1321 37.9577L28.4264 36.5207C27.5294 36.0463 26.5237 35.8154 25.5097 35.8513C24.4956 35.8871 23.5087 36.1883 22.6475 36.7249L24.1902 44.0789L25.0118 43.9018C25.4432 43.8091 25.8874 43.7914 26.3248 43.8497L32.4697 44.5237C33.6255 44.6778 34.7979 44.4038 35.7657 43.7533L45.5913 37.1612C45.8067 37.0146 45.9559 36.7893 46.0067 36.5337C46.0575 36.2782 46.0058 36.0129 45.8628 35.7951L45.8614 35.7946Z" fill="white"/>
<path d="M17.4919 35.9496L19.7125 46.5328L23.5295 45.7112L21.3084 35.128L17.4919 35.9496ZM19.4237 38.0453L19.2216 37.083L20.1843 36.8808L20.3865 37.8426L19.4237 38.0453Z" fill="white"/>
</svg>
